<svg width="28" viewBox="0 0 28 28" fill="#6E6E73" xmlns="http://www.w3.org/2000/svg">
<path fill-rule="evenodd" clip-rule="evenodd" d="M14 11.375C12.5503 11.375 11.375 12.5503 11.375 14C11.375 15.4497 12.5503 16.625 14 16.625C15.4497 16.625 16.625 15.4497 16.625 14C16.625 12.5503 15.4497 11.375 14 11.375ZM9.625 14C9.625 11.5838 11.5838 9.625 14 9.625C16.4162 9.625 18.375 11.5838 18.375 14C18.375 16.4162 16.4162 18.375 14 18.375C11.5838 18.375 9.625 16.4162 9.625 14Z" />
<path fill-rule="evenodd" clip-rule="evenodd" d="M11.965 2.1113C12.0662 1.7269 12.4137 1.45898 12.8112 1.45898H15.0913C15.4889 1.45898 15.8365 1.7271 15.9376 2.1117L16.5531 4.45511L18.8137 5.38477L20.4316 4.00213C20.7788 3.70541 21.2958 3.72565 21.6188 4.0486L23.9521 6.38193C24.2738 6.70364 24.2953 7.21819 24.0015 7.56561L22.6246 9.19407L23.5334 11.3887L25.8823 11.986C26.2702 12.0846 26.5417 12.4338 26.5417 12.834L26.5416 15.1408C26.5415 15.5391 26.2724 15.8872 25.8869 15.9875L23.5247 16.6021L22.6146 18.7998L24.0008 20.4348C24.2953 20.7822 24.2741 21.2974 23.9521 21.6194L21.6188 23.9527C21.2901 24.2814 20.7619 24.2957 20.4158 23.9854L20.3511 23.9275C20.3091 23.89 20.2483 23.8359 20.1738 23.7698C20.0246 23.6374 19.8206 23.4573 19.601 23.2662C19.3302 23.0305 19.0525 22.7927 18.8265 22.6063L16.6124 23.5231L16.0149 25.8822C15.9166 26.2704 15.5672 26.5423 15.1667 26.5423H12.8334C12.4326 26.5423 12.0831 26.2701 11.985 25.8816L11.3894 23.5232L9.23864 22.6384L7.55281 24.0123C7.20484 24.2958 6.69873 24.2701 6.38132 23.9527L4.04799 21.6194C3.72005 21.2914 3.70495 20.7646 4.01357 20.4184L5.41404 18.8474L4.49369 16.6641L2.10293 16.0114C1.72236 15.9075 1.45837 15.5618 1.45837 15.1673V12.834C1.45837 12.4273 1.73852 12.0743 2.13452 11.9819L4.4614 11.4389L5.35672 9.23756L3.98759 7.5524C3.70486 7.2044 3.73094 6.69899 4.04799 6.38193L6.38132 4.0486C6.70899 3.72093 7.23531 3.70554 7.58156 4.01351L9.15745 5.41516L11.3374 4.49625L11.965 2.1113ZM13.4857 3.20898L12.9202 5.35799C12.8511 5.62053 12.664 5.83613 12.4139 5.94159L9.3284 7.24223C9.01755 7.37327 8.65906 7.31394 8.407 7.08975L7.03519 5.86961L5.84343 7.06137L7.04141 8.53589C7.24276 8.78371 7.29312 9.12153 7.17283 9.4173L5.91182 12.5177C5.80481 12.7808 5.57675 12.9756 5.30015 13.0401L3.20837 13.5283V14.4992L5.36512 15.088C5.6243 15.1587 5.83661 15.3446 5.94096 15.5922L7.24137 18.6771C7.37255 18.9883 7.31294 19.3472 7.08822 19.5993L5.86966 20.9662L7.05992 22.1564L8.53696 20.9527C8.78582 20.7499 9.12575 20.6997 9.42263 20.8218L12.4628 22.0725C12.7192 22.178 12.9104 22.3987 12.9783 22.6675L13.5149 24.7923H14.4857L15.0238 22.6679C15.0916 22.4 15.2819 22.18 15.5372 22.0743L18.6296 20.7937C18.9086 20.6781 19.2275 20.7147 19.4732 20.8903C19.7722 21.104 20.3157 21.5682 20.7499 21.9462C20.8234 22.0102 20.8951 22.0728 20.9636 22.1329L22.1448 20.9518L20.9345 19.5241C20.7225 19.2741 20.6681 18.9264 20.7935 18.6235L22.0745 15.5302C22.1794 15.2768 22.3971 15.0873 22.6626 15.0182L24.7916 14.4642L24.7917 13.5143L22.6772 12.9766C22.4097 12.9086 22.19 12.7184 22.0844 12.4634L20.8038 9.37102C20.6785 9.06849 20.7326 8.72133 20.944 8.47129L22.1456 7.05027L20.9534 5.85814L19.544 7.06262C19.2944 7.27593 18.9464 7.33155 18.6427 7.20667L15.4846 5.90792C15.2309 5.80358 15.0408 5.5863 14.9711 5.32097L14.4164 3.20898H13.4857Z" />
</svg>
