<svg width="246" height="215" viewBox="0 0 246 215" fill="none" xmlns="http://www.w3.org/2000/svg">
<path fill-rule="evenodd" clip-rule="evenodd" d="M113.938 5C117.787 -1.66667 127.409 -1.66667 131.258 5L243.842 200C247.691 206.667 242.88 215 235.182 215H10.0149C2.31691 215 -2.49434 206.667 1.35466 200L113.938 5ZM133.598 176C133.598 182.075 128.673 187 122.598 187C116.523 187 111.598 182.075 111.598 176C111.598 169.925 116.523 165 122.598 165C128.673 165 133.598 169.925 133.598 176ZM119.033 57C113.343 57 108.8 61.7406 109.042 67.4252L112.191 141.425C112.419 146.778 116.824 151 122.182 151H123.015C128.372 151 132.778 146.778 133.006 141.425L136.155 67.4251C136.396 61.7406 131.853 57 126.164 57H119.033Z" fill="#D6D6D6"/>
</svg>
