<svg width="164" height="32" viewBox="0 0 164 32" fill="none" xmlns="http://www.w3.org/2000/svg">
<path d="M8.75447 10.5963C8.61856 12.0461 8.52318 14.6117 9.37919 15.7038C9.37919 15.7038 8.97622 12.8854 12.5886 9.34927C14.0431 7.92577 14.3793 5.98962 13.8715 4.5375C13.5829 3.71488 13.056 3.03531 12.5982 2.56081C12.3311 2.28184 12.5362 1.82164 12.9248 1.83833C15.2759 1.94325 19.0862 2.59658 20.7052 6.65964C21.4158 8.44319 21.4682 10.2864 21.1296 12.1605C20.915 13.3575 20.152 16.0185 21.8927 16.3452C23.1349 16.5789 23.7358 15.5917 24.0053 14.8811C24.1173 14.5855 24.506 14.5116 24.7158 14.7476C26.8141 17.1344 26.9929 19.9457 26.559 22.3659C25.7197 27.0441 20.9818 30.4491 16.275 30.4491C10.395 30.4491 5.71433 27.0846 4.50066 20.9948C4.01185 18.5365 4.25983 13.6722 8.05107 10.2387C8.33243 9.98115 8.79262 10.2101 8.75447 10.5963Z" fill="url(#paint0_radial_571_7351)"/>
<path d="M17.7171 20.7093C15.8155 18.2649 16.6669 15.4759 17.1335 14.3645C17.1962 14.2182 17.0289 14.0803 16.8971 14.1702C16.0791 14.7259 14.4034 16.0337 13.6231 17.8743C12.5667 20.3625 12.642 21.5804 13.2675 23.0679C13.644 23.9642 13.2068 24.1543 12.9871 24.1877C12.7738 24.2211 12.5771 24.0791 12.4202 23.9307C11.9688 23.498 11.6472 22.9482 11.4914 22.343C11.4579 22.2135 11.2884 22.1779 11.211 22.2845C10.6253 23.093 10.322 24.3904 10.3073 25.3075C10.2613 28.1425 12.6064 30.4406 15.4431 30.4406C19.0183 30.4406 21.6229 26.4921 19.5685 23.1912C18.9723 22.2302 18.4117 21.6013 17.7171 20.7093Z" fill="url(#paint1_radial_571_7351)"/>
<path d="M45.16 25.92H37.54V23.79L43.33 14.1H37.78V9.42H50.5V11.13L44.47 21.24H45.94C47.98 21.24 49.24 21.24 50.65 21.06V25.65C49.33 25.98 46.9 25.92 45.16 25.92ZM52.409 9.42H57.599V25.92H52.409V9.42ZM57.599 7.68H52.409V3.66H57.599V7.68ZM68.1862 20.67C70.3462 20.64 71.5162 19.23 71.5162 17.37C71.5162 14.76 69.9862 13.56 68.1862 13.47C66.7162 13.38 64.9762 14.34 64.8562 17.1C64.7362 19.56 66.3262 20.7 68.1862 20.67ZM76.8562 23.07C76.8562 26.16 76.4362 28.23 74.0362 29.94C72.1762 31.2 69.5062 31.47 66.8362 31.35C65.0062 31.26 62.6362 30.72 60.4162 29.43L62.5762 25.35C64.6462 26.52 66.5962 27.15 68.9062 26.91C70.9162 26.67 71.6062 25.5 71.6062 24.42V23.7C70.8262 24.54 69.1162 25.11 67.3762 25.11C63.8362 25.11 59.5762 22.74 59.7562 17.34C59.9662 11.4 63.5362 8.82 67.6762 9.03C69.4162 9.09 70.7362 9.72 71.6062 10.59V9.42H76.8562V23.07ZM87.4342 20.67C89.5942 20.64 90.7642 19.23 90.7642 17.37C90.7642 14.76 89.2342 13.56 87.4342 13.47C85.9642 13.38 84.2242 14.34 84.1042 17.1C83.9842 19.56 85.5742 20.7 87.4342 20.67ZM96.1042 23.07C96.1042 26.16 95.6842 28.23 93.2842 29.94C91.4242 31.2 88.7542 31.47 86.0842 31.35C84.2542 31.26 81.8842 30.72 79.6642 29.43L81.8242 25.35C83.8942 26.52 85.8442 27.15 88.1542 26.91C90.1642 26.67 90.8542 25.5 90.8542 24.42V23.7C90.0742 24.54 88.3642 25.11 86.6242 25.11C83.0842 25.11 78.8242 22.74 79.0042 17.34C79.2142 11.4 82.7842 8.82 86.9242 9.03C88.6642 9.09 89.9842 9.72 90.8542 10.59V9.42H96.1042V23.07ZM98.5223 3.21H103.742V25.92H98.5223V3.21ZM105.809 17.76C105.809 12.24 109.169 8.82 114.029 8.82C119.009 8.82 121.889 12.48 121.889 17.82L121.769 19.47H110.939C111.059 21 112.529 21.84 114.239 21.84C115.799 21.84 116.879 21.21 117.839 20.04L121.229 22.98C119.459 25.41 117.059 26.52 114.029 26.52C109.199 26.52 105.719 23.16 105.809 17.76ZM116.819 15.45C116.609 14.07 115.409 13.41 114.059 13.41C112.559 13.41 111.419 14.16 111.239 15.45H116.819Z" fill="#252525"/>
<path d="M129.387 13.5195C127.852 13.5195 126.809 12.8516 126.691 11.668H127.746C127.887 12.3125 128.484 12.6406 129.387 12.6406C130.477 12.6406 131.145 12.1719 131.145 11.1172V9.82812H131.062C130.852 10.1797 130.441 10.9062 129.211 10.9062C127.664 10.9062 126.504 9.73438 126.504 7.73047C126.504 5.77344 127.629 4.55469 129.223 4.55469C130.453 4.55469 130.852 5.30469 131.086 5.64453H131.168V4.63672H132.152V11.1758C132.152 12.8164 130.934 13.5195 129.387 13.5195ZM129.352 10.0039C130.512 10.0039 131.168 9.17188 131.168 7.76562C131.168 6.40625 130.535 5.45703 129.352 5.45703C128.133 5.45703 127.523 6.48828 127.523 7.76562C127.523 9.08984 128.145 10.0039 129.352 10.0039ZM133.758 11V4.63672H134.73V5.60938H134.801C135.035 4.96484 135.691 4.53125 136.441 4.53125C136.594 4.53125 136.852 4.54297 136.969 4.55469V5.57422C136.898 5.55078 136.617 5.50391 136.359 5.50391C135.445 5.50391 134.766 6.13672 134.766 6.99219V11H133.758ZM140.344 11.1289C138.609 11.1289 137.438 9.82812 137.438 7.84766C137.438 5.86719 138.609 4.55469 140.344 4.55469C142.066 4.55469 143.227 5.86719 143.227 7.84766C143.227 9.82812 142.066 11.1289 140.344 11.1289ZM140.344 10.2383C141.621 10.2383 142.219 9.11328 142.219 7.84766C142.219 6.58203 141.621 5.44531 140.344 5.44531C139.043 5.44531 138.445 6.58203 138.445 7.84766C138.445 9.11328 139.043 10.2383 140.344 10.2383ZM148.57 8.38672V4.63672H149.566V11H148.57V9.92188H148.5C148.195 10.5664 147.574 11.082 146.613 11.082C145.406 11.082 144.551 10.2969 144.551 8.67969V4.63672H145.559V8.60938C145.559 9.52344 146.133 10.1094 146.941 10.1094C147.656 10.1094 148.57 9.57031 148.57 8.38672ZM151.184 13.3906V4.63672H152.156V5.64453H152.273C152.484 5.30469 152.883 4.55469 154.113 4.55469C155.707 4.55469 156.82 5.82031 156.82 7.83594C156.82 9.85156 155.707 11.1289 154.125 11.1289C152.906 11.1289 152.484 10.3789 152.273 10.0273H152.191V13.3906H151.184ZM152.168 7.8125C152.168 9.24219 152.812 10.2266 153.984 10.2266C155.191 10.2266 155.812 9.17188 155.812 7.8125C155.812 6.48828 155.203 5.45703 153.984 5.45703C152.789 5.45703 152.168 6.40625 152.168 7.8125ZM161.672 6.28906C161.531 5.76172 161.133 5.41016 160.383 5.41016C159.598 5.41016 159.035 5.83203 159.035 6.37109C159.035 6.79297 159.375 7.08594 160.125 7.26172L161.074 7.49609C162.211 7.76562 162.773 8.32812 162.773 9.21875C162.773 10.3203 161.871 11.1289 160.277 11.1289C158.848 11.1289 157.992 10.4961 157.828 9.33594H158.883C159 9.95703 159.457 10.25 160.254 10.25C161.156 10.25 161.73 9.875 161.73 9.27734C161.73 8.83203 161.414 8.52734 160.688 8.36328L159.727 8.14062C158.613 7.88281 158.027 7.27344 158.027 6.42969C158.027 5.33984 158.977 4.55469 160.383 4.55469C161.695 4.55469 162.527 5.25781 162.656 6.28906H161.672Z" fill="#FF4500"/>
<defs>
<radialGradient id="paint0_radial_571_7351" cx="0" cy="0" r="1" gradientUnits="userSpaceOnUse" gradientTransform="translate(15.1103 30.5232) rotate(-179.751) scale(16.8311 27.6165)">
<stop offset="0.314" stop-color="#FF9800"/>
<stop offset="0.662" stop-color="#FF6D00"/>
<stop offset="0.972" stop-color="#F44336"/>
</radialGradient>
<radialGradient id="paint1_radial_571_7351" cx="0" cy="0" r="1" gradientUnits="userSpaceOnUse" gradientTransform="translate(15.6398 15.8286) rotate(90.5795) scale(15.4298 11.6278)">
<stop offset="0.214" stop-color="#FFEA33"/>
<stop offset="0.328" stop-color="#FFF27D"/>
<stop offset="0.487" stop-color="#FFF48F"/>
<stop offset="0.672" stop-color="#FFF7AD"/>
<stop offset="0.793" stop-color="#FFF9C4"/>
<stop offset="0.822" stop-color="#FFF8BD" stop-opacity="0.804"/>
<stop offset="0.863" stop-color="#FFF6AB" stop-opacity="0.529"/>
<stop offset="0.91" stop-color="#FFF38D" stop-opacity="0.209"/>
<stop offset="0.941" stop-color="#FFF176" stop-opacity="0"/>
</radialGradient>
</defs>
</svg>
