<svg width="120" height="32" viewBox="0 0 120 32" fill="none" xmlns="http://www.w3.org/2000/svg">
<path d="M8.75447 10.5963C8.61856 12.0461 8.52318 14.6117 9.37919 15.7038C9.37919 15.7038 8.97622 12.8854 12.5886 9.34927C14.0431 7.92577 14.3793 5.98962 13.8715 4.5375C13.5829 3.71488 13.056 3.03531 12.5982 2.56081C12.3311 2.28184 12.5362 1.82164 12.9248 1.83833C15.2759 1.94325 19.0862 2.59658 20.7052 6.65964C21.4158 8.44319 21.4682 10.2864 21.1296 12.1605C20.915 13.3575 20.152 16.0185 21.8927 16.3452C23.1349 16.5789 23.7358 15.5917 24.0053 14.8811C24.1173 14.5855 24.506 14.5116 24.7158 14.7476C26.8141 17.1344 26.9929 19.9457 26.559 22.3659C25.7197 27.0441 20.9818 30.4491 16.275 30.4491C10.395 30.4491 5.71433 27.0846 4.50066 20.9948C4.01185 18.5365 4.25983 13.6722 8.05107 10.2387C8.33243 9.98115 8.79262 10.2101 8.75447 10.5963Z" fill="url(#paint0_radial_2235_9145)"/>
<path d="M17.7171 20.7093C15.8155 18.2649 16.6669 15.4759 17.1335 14.3645C17.1962 14.2182 17.0289 14.0803 16.8971 14.1702C16.0791 14.7259 14.4034 16.0337 13.6231 17.8743C12.5667 20.3625 12.642 21.5804 13.2675 23.0679C13.644 23.9642 13.2068 24.1543 12.9871 24.1877C12.7738 24.2211 12.5771 24.0791 12.4202 23.9307C11.9688 23.498 11.6472 22.9482 11.4914 22.343C11.4579 22.2135 11.2884 22.1779 11.211 22.2845C10.6253 23.093 10.322 24.3904 10.3073 25.3075C10.2613 28.1425 12.6064 30.4406 15.4431 30.4406C19.0183 30.4406 21.6229 26.4921 19.5685 23.1912C18.9723 22.2302 18.4117 21.6013 17.7171 20.7093Z" fill="url(#paint1_radial_2235_9145)"/>
<path d="M45.16 25.92H37.54V23.79L43.33 14.1H37.78V9.42H50.5V11.13L44.47 21.24H45.94C46.96 21.24 47.82 21.24 48.52 21.24C49.22 21.22 49.93 21.16 50.65 21.06V25.65C50.31 25.75 49.91 25.82 49.45 25.86C49.01 25.88 48.54 25.9 48.04 25.92C47.56 25.94 47.06 25.95 46.54 25.95C46.04 25.93 45.58 25.92 45.16 25.92ZM60.569 20.67C61.649 20.67 62.469 20.36 63.029 19.74C63.609 19.1 63.899 18.31 63.899 17.37C63.899 16.07 63.569 15.11 62.909 14.49C62.249 13.87 61.469 13.53 60.569 13.47C60.189 13.45 59.809 13.5 59.429 13.62C59.049 13.74 58.699 13.94 58.379 14.22C58.059 14.52 57.789 14.91 57.569 15.39C57.369 15.85 57.259 16.42 57.239 17.1C57.179 18.34 57.479 19.25 58.139 19.83C58.819 20.41 59.629 20.69 60.569 20.67ZM69.239 23.07C69.239 24.63 69.069 25.95 68.729 27.03C68.389 28.13 67.619 29.1 66.419 29.94C65.479 30.58 64.369 30.99 63.089 31.17C61.829 31.35 60.539 31.41 59.219 31.35C58.299 31.31 57.269 31.14 56.129 30.84C55.009 30.56 53.899 30.09 52.799 29.43L54.959 25.35C55.979 25.95 56.999 26.39 58.019 26.67C59.039 26.95 60.129 27.03 61.289 26.91C62.289 26.79 62.989 26.48 63.389 25.98C63.789 25.48 63.989 24.96 63.989 24.42V23.7C63.589 24.12 62.999 24.46 62.219 24.72C61.439 24.98 60.619 25.11 59.759 25.11C58.859 25.11 57.949 24.96 57.029 24.66C56.109 24.36 55.279 23.89 54.539 23.25C53.799 22.63 53.199 21.83 52.739 20.85C52.279 19.87 52.079 18.7 52.139 17.34C52.179 15.86 52.419 14.59 52.859 13.53C53.299 12.45 53.879 11.57 54.599 10.89C55.319 10.21 56.149 9.72 57.089 9.42C58.029 9.12 59.019 8.99 60.059 9.03C60.919 9.07 61.679 9.24 62.339 9.54C62.999 9.82 63.549 10.17 63.989 10.59V9.42H69.239V23.07ZM71.657 3.21H76.877V25.92H71.657V3.21Z" fill="#252525"/>
<path d="M85.3867 13.5195C83.8516 13.5195 82.8086 12.8516 82.6914 11.668H83.7461C83.8867 12.3125 84.4844 12.6406 85.3867 12.6406C86.4766 12.6406 87.1445 12.1719 87.1445 11.1172V9.82812H87.0625C86.8516 10.1797 86.4414 10.9062 85.2109 10.9062C83.6641 10.9062 82.5039 9.73438 82.5039 7.73047C82.5039 5.77344 83.6289 4.55469 85.2227 4.55469C86.4531 4.55469 86.8516 5.30469 87.0859 5.64453H87.168V4.63672H88.1523V11.1758C88.1523 12.8164 86.9336 13.5195 85.3867 13.5195ZM85.3516 10.0039C86.5117 10.0039 87.168 9.17188 87.168 7.76562C87.168 6.40625 86.5352 5.45703 85.3516 5.45703C84.1328 5.45703 83.5234 6.48828 83.5234 7.76562C83.5234 9.08984 84.1445 10.0039 85.3516 10.0039ZM89.7578 11V4.63672H90.7305V5.60938H90.8008C91.0352 4.96484 91.6914 4.53125 92.4414 4.53125C92.5938 4.53125 92.8516 4.54297 92.9688 4.55469V5.57422C92.8984 5.55078 92.6172 5.50391 92.3594 5.50391C91.4453 5.50391 90.7656 6.13672 90.7656 6.99219V11H89.7578ZM96.3438 11.1289C94.6094 11.1289 93.4375 9.82812 93.4375 7.84766C93.4375 5.86719 94.6094 4.55469 96.3438 4.55469C98.0664 4.55469 99.2266 5.86719 99.2266 7.84766C99.2266 9.82812 98.0664 11.1289 96.3438 11.1289ZM96.3438 10.2383C97.6211 10.2383 98.2188 9.11328 98.2188 7.84766C98.2188 6.58203 97.6211 5.44531 96.3438 5.44531C95.043 5.44531 94.4453 6.58203 94.4453 7.84766C94.4453 9.11328 95.043 10.2383 96.3438 10.2383ZM104.57 8.38672V4.63672H105.566V11H104.57V9.92188H104.5C104.195 10.5664 103.574 11.082 102.613 11.082C101.406 11.082 100.551 10.2969 100.551 8.67969V4.63672H101.559V8.60938C101.559 9.52344 102.133 10.1094 102.941 10.1094C103.656 10.1094 104.57 9.57031 104.57 8.38672ZM107.184 13.3906V4.63672H108.156V5.64453H108.273C108.484 5.30469 108.883 4.55469 110.113 4.55469C111.707 4.55469 112.82 5.82031 112.82 7.83594C112.82 9.85156 111.707 11.1289 110.125 11.1289C108.906 11.1289 108.484 10.3789 108.273 10.0273H108.191V13.3906H107.184ZM108.168 7.8125C108.168 9.24219 108.812 10.2266 109.984 10.2266C111.191 10.2266 111.812 9.17188 111.812 7.8125C111.812 6.48828 111.203 5.45703 109.984 5.45703C108.789 5.45703 108.168 6.40625 108.168 7.8125ZM117.672 6.28906C117.531 5.76172 117.133 5.41016 116.383 5.41016C115.598 5.41016 115.035 5.83203 115.035 6.37109C115.035 6.79297 115.375 7.08594 116.125 7.26172L117.074 7.49609C118.211 7.76562 118.773 8.32812 118.773 9.21875C118.773 10.3203 117.871 11.1289 116.277 11.1289C114.848 11.1289 113.992 10.4961 113.828 9.33594H114.883C115 9.95703 115.457 10.25 116.254 10.25C117.156 10.25 117.73 9.875 117.73 9.27734C117.73 8.83203 117.414 8.52734 116.688 8.36328L115.727 8.14062C114.613 7.88281 114.027 7.27344 114.027 6.42969C114.027 5.33984 114.977 4.55469 116.383 4.55469C117.695 4.55469 118.527 5.25781 118.656 6.28906H117.672Z" fill="#FF4500"/>
<defs>
<radialGradient id="paint0_radial_2235_9145" cx="0" cy="0" r="1" gradientUnits="userSpaceOnUse" gradientTransform="translate(15.1103 30.5232) rotate(-179.751) scale(16.8311 27.6165)">
<stop offset="0.314" stop-color="#FF9800"/>
<stop offset="0.662" stop-color="#FF6D00"/>
<stop offset="0.972" stop-color="#F44336"/>
</radialGradient>
<radialGradient id="paint1_radial_2235_9145" cx="0" cy="0" r="1" gradientUnits="userSpaceOnUse" gradientTransform="translate(15.6398 15.8286) rotate(90.5795) scale(15.4298 11.6278)">
<stop offset="0.214" stop-color="#FFEA33"/>
<stop offset="0.328" stop-color="#FFF27D"/>
<stop offset="0.487" stop-color="#FFF48F"/>
<stop offset="0.672" stop-color="#FFF7AD"/>
<stop offset="0.793" stop-color="#FFF9C4"/>
<stop offset="0.822" stop-color="#FFF8BD" stop-opacity="0.804"/>
<stop offset="0.863" stop-color="#FFF6AB" stop-opacity="0.529"/>
<stop offset="0.91" stop-color="#FFF38D" stop-opacity="0.209"/>
<stop offset="0.941" stop-color="#FFF176" stop-opacity="0"/>
</radialGradient>
</defs>
</svg>
